<?xml version="1.0" encoding="utf-8"?><svg viewBox="0 0 264 548" xmlns="http://www.w3.org/2000/svg" xmlns:xlink="http://www.w3.org/1999/xlink"><style>:root>svg{display:none}:root>svg:target{display:block}</style><svg fill="none" viewBox="0 0 20 22" id="bone" xmlns="http://www.w3.org/2000/svg"><path d="M19.28 3.474a2.376 2.376 0 00-1.746-.795c0-.699-.265-1.378-.723-1.882-.953-1.048-2.522-1.048-3.475 0-.829.892-.934 2.27-.37 3.317L3.777 14.261a2.325 2.325 0 00-3.051.407c-.952 1.048-.952 2.774 0 3.822a2.376 2.376 0 001.746.795c0 .718.265 1.416.723 1.92.953 1.049 2.522 1.049 3.475 0 .917-1.008.952-2.599.176-3.646l9.118-10.07a2.34 2.34 0 003.316-.193c.952-1.048.952-2.774 0-3.822zm-.83 2.91a1.26 1.26 0 01-1.869 0 1.53 1.53 0 01-.158-.194.522.522 0 00-.847-.078c-.018.02-9.965 11-10 11.059-.212.29-.176.717.106.93.652.525.723 1.592.159 2.193a1.216 1.216 0 01-1.817 0c-.353-.388-.476-1.028-.282-1.571.194-.524-.282-1.048-.759-.835-.476.214-1.058.078-1.428-.31-.794-.873-.265-2.425.935-2.425.352 0 .688.155.934.407.23.253.6.253.83 0C14.87 3.823 14.217 4.58 14.288 4.425a.7.7 0 00-.124-.738c-.494-.543-.494-1.455 0-1.998a1.216 1.216 0 011.817 0c.37.408.476.99.282 1.513a.702.702 0 000 .466c.123.33.459.485.758.369.477-.214 1.059-.078 1.429.31.511.582.511 1.474 0 2.037z" fill="#961914"/><path d="M6.473 7.954c.229.252.6.252.829 0a.69.69 0 000-.912L5.309 4.85a.549.549 0 00-.83 0 .69.69 0 000 .912l1.994 2.192zM2.187 10.263h2.804c.318 0 .582-.291.582-.64 0-.35-.264-.64-.582-.64H2.187c-.317 0-.582.29-.582.64 0 .368.265.64.582.64zM8.818 6.072c.318 0 .582-.29.582-.64V2.328c0-.35-.264-.64-.582-.64-.317 0-.582.29-.582.64v3.104c0 .35.247.64.582.64zM13.598 14.046a.549.549 0 00-.829 0 .69.69 0 000 .912l1.993 2.192a.583.583 0 00.406.194c.511 0 .776-.699.405-1.106l-1.975-2.192zM17.884 11.737h-2.822c-.318 0-.582.291-.582.64 0 .35.264.64.582.64h2.804c.317 0 .582-.29.582-.64.018-.349-.247-.64-.564-.64zM11.252 15.928c-.317 0-.582.29-.582.64v3.084c0 .35.265.64.582.64.318 0 .582-.29.582-.64v-3.084c0-.35-.264-.64-.582-.64z" fill="#961914"/></svg><svg fill="none" viewBox="0 0 40 40" id="clock" xmlns="http://www.w3.org/2000/svg"><path d="M20 35c8.284 0 15-6.716 15-15 0-8.284-6.716-15-15-15-8.284 0-15 6.716-15 15 0 8.284 6.716 15 15 15z" stroke="#961914" stroke-width="2" stroke-miterlimit="10"/><path d="M20 11.25V20h8.75" stroke="#961914" stroke-width="2" stroke-linecap="round" stroke-linejoin="round"/></svg><svg fill="none" viewBox="0 0 140 16" id="delivery-arrow" xmlns="http://www.w3.org/2000/svg"><path d="M139.354 8.354a.5.5 0 000-.708l-3.182-3.182a.501.501 0 00-.708.708L138.293 8l-2.829 2.828a.5.5 0 00.708.708l3.182-3.182zM4.964 8.5a.5.5 0 000-1v1zm9.929-1a.5.5 0 100 1v-1zm9.928 1a.5.5 0 100-1v1zm9.929-1a.5.5 0 000 1v-1zm9.929 1a.5.5 0 000-1v1zm9.928-1a.5.5 0 000 1v-1zm9.929 1a.5.5 0 100-1v1zm9.928-1a.5.5 0 100 1v-1zm9.929 1a.5.5 0 000-1v1zm9.928-1a.5.5 0 000 1v-1zm9.929 1a.5.5 0 000-1v1zm9.929-1a.5.5 0 100 1v-1zm9.928 1a.5.5 0 000-1v1zm9.929-1a.5.5 0 000 1v-1zM0 8.5h4.964v-1H0v1zm14.893 0h9.928v-1h-9.928v1zm19.857 0h9.929v-1H34.75v1zm19.857 0h9.929v-1h-9.929v1zm19.857 0h9.929v-1h-9.929v1zm19.857 0h9.929v-1h-9.929v1zm19.858 0h9.928v-1h-9.928v1zm19.857 0H139v-1h-4.964v1zm5.671.207a1 1 0 000-1.414L133.343.929a1 1 0 10-1.414 1.414L137.586 8l-5.657 5.657a1 1 0 101.414 1.414l6.364-6.364zM4.964 9a1 1 0 000-2v2zm9.929-2a1 1 0 100 2V7zm9.928 2a1 1 0 100-2v2zm9.929-2a1 1 0 100 2V7zm9.929 2a1 1 0 100-2v2zm9.928-2a1 1 0 000 2V7zm9.929 2a1 1 0 100-2v2zm9.928-2a1 1 0 100 2V7zm9.929 2a1 1 0 100-2v2zm9.928-2a1 1 0 000 2V7zm9.929 2a1 1 0 000-2v2zm9.929-2a1 1 0 100 2V7zm9.928 2a1 1 0 000-2v2zm9.929-2a1 1 0 100 2V7zM0 9h4.964V7H0v2zm14.893 0h9.928V7h-9.928v2zM34.75 9h9.929V7H34.75v2zm19.857 0h9.929V7h-9.929v2zm19.857 0h9.929V7h-9.929v2zm19.857 0h9.929V7h-9.929v2zm19.858 0h9.928V7h-9.928v2zm19.857 0H139V7h-4.964v2z" fill="#EAD1D0"/></svg><svg fill="none" viewBox="0 0 30 29" id="fruits" xmlns="http://www.w3.org/2000/svg"><path d="M29.103 15.842c-.268-.601-.593-1.242-.956-1.883a34.299 34.299 0 01-2.314-4.907c-.057-.16-.134-.32-.191-.48a.444.444 0 00-.593-.22c-.23.12-.306.4-.21.62.057.14.115.26.172.4.593 1.643 1.377 3.286 2.371 5.048.363.62.67 1.242.918 1.802.554 1.222.822 2.243.822 3.024 0 4.847-3.92 8.813-8.738 8.813-1.51 0-2.983-.4-4.302-1.142.765-.7 1.434-1.502 2.007-2.403a13.228 13.228 0 001.874-5.428c.344-3.104-.401-5.928-1.93-7.21-.957-.8-1.932-1.021-2.869-.94.21-.522.42-1.042.612-1.563a4.96 4.96 0 011.759-2.323 4.858 4.858 0 012.849-.922c.134 0 .248 0 .363.02 1.186.08 2.295.601 3.136 1.463.172.18.459.18.63 0a.488.488 0 000-.661 5.67 5.67 0 00-3.651-1.703c.096-1.282.65-2.663 1.97-3.164.229-.08.343-.36.267-.601a.45.45 0 00-.574-.28c-1.72.66-2.447 2.443-2.543 4.045-1.09.06-2.084.42-2.944 1.042a5.933 5.933 0 00-2.103 2.763c-.249.681-.555 1.402-.88 2.123-.918.26-1.76.761-2.466 1.162-.421.24-.823.48-1.148.6a8.864 8.864 0 00-.516-2.322c2.141-.22 4.13-1.422 5.373-3.285 1.376-2.023 1.74-4.646.994-7.01a.433.433 0 00-.42-.32C13.5.06 11.262 1.302 9.886 3.325A8.192 8.192 0 008.529 8.29c-.42-.44-.88-.74-1.338-.86-.249-.08-.478.08-.555.32-.057.24.077.5.325.58 1.32.381 2.39 2.664 2.582 4.587a5.121 5.121 0 01-.593-.3c-.153-.08-.325-.18-.497-.281-1.033-.6-2.295-1.322-3.652-1.402-1.014-.06-1.95.26-2.773.961C.9 12.818.174 14.62.04 16.803c-.23 3.405.937 6.89 3.135 9.333.173.18.46.2.631.02.173-.18.192-.48.02-.66C1.799 23.231.709 20.007.919 16.882c.134-1.922.746-3.504 1.664-4.266.669-.54 1.376-.8 2.18-.74 1.147.06 2.275.7 3.27 1.281.19.1.362.2.534.3.287.16.517.28.727.361.268.1.516.16.727.16.554 0 1.204-.36 2.007-.84 1.587-.902 3.576-2.064 5.43-.522 1.282 1.062 1.913 3.605 1.607 6.37-.21 1.802-.803 3.544-1.721 5.026-1.071 1.722-2.543 3.024-4.379 3.925-.401.2-.841.1-1.377-.28-.44-.32-.936-.48-1.453-.52h-.057a2.553 2.553 0 00-1.625.52c-.536.38-.975.46-1.377.28a10.831 10.831 0 01-1.988-1.241.428.428 0 00-.631.1c-.153.2-.115.5.095.66.65.522 1.377.982 2.142 1.343.267.14.535.18.803.18.573 0 1.09-.26 1.453-.54.325-.241.707-.361 1.109-.341h.057c.344.02.689.14.975.34.555.4 1.377.781 2.257.36.707-.34 1.376-.76 1.988-1.221a9.522 9.522 0 005.048 1.442c5.315 0 9.617-4.366 9.617-9.733 0-.942-.305-2.103-.898-3.445zM10.23 9.633l2.581-3.825 2.16.3c-.114.22-.248.461-.4.681a6.586 6.586 0 01-4.341 2.844zm3.327-6.549l-.593-1.362a6.23 6.23 0 011.989-.7l-1.396 2.062zm2.122-1.522a7.37 7.37 0 01-.306 3.645l-1.97-.26 2.276-3.385zm-3.48.661l.784 1.763-.726 1.04-.593.862-.899-2.243c.402-.54.88-1.041 1.434-1.422zm-2.026 2.383l.88 2.183-1.55 2.304c-.248-1.523-.019-3.125.67-4.487z" fill="#961914"/></svg><svg fill="none" viewBox="0 0 40 40" id="heart" xmlns="http://www.w3.org/2000/svg"><path d="M4.018 14.749A11.028 11.028 0 014 14.125a8.126 8.126 0 0115.625-3.13h0a8.126 8.126 0 0115.625 3.13C35.25 24.75 19.625 33.5 19.625 33.5s-6.241-3.495-10.835-8.75" stroke="#961914" stroke-width="2" stroke-linecap="round" stroke-linejoin="round"/></svg><svg fill="none" viewBox="0 0 40 40" id="heartbeat" xmlns="http://www.w3.org/2000/svg"><path d="M5 20h6.25l2.5-3.75 5 7.5 2.5-3.75H25" stroke="#961914" stroke-width="2" stroke-linecap="round" stroke-linejoin="round"/><path d="M4.393 14.999a11.034 11.034 0 01-.018-.624A8.126 8.126 0 0120 11.245h0a8.127 8.127 0 0115.625 3.13C35.625 25 20 33.75 20 33.75S13.759 30.255 9.165 25" stroke="#961914" stroke-width="2" stroke-linecap="round" stroke-linejoin="round"/></svg><svg fill="none" viewBox="0 0 40 40" id="leaf" xmlns="http://www.w3.org/2000/svg"><path d="M25 15L3.75 36.25M7.31 32.69A20.014 20.014 0 0132.69 7.31 20.014 20.014 0 017.31 32.69v0z" stroke="#961914" stroke-width="2" stroke-linecap="round" stroke-linejoin="round"/></svg><svg fill="none" viewBox="0 0 26 20" id="liver" xmlns="http://www.w3.org/2000/svg"><path d="M17.725.476c-.349 0-.587.27-.587.663s.238.662.587.662c3.908 0 7.1.124 7.1 1.201 0 2.609-5.852 5.528-9.284 7.205-.422-.393-.715-1.325-.715-2.07 0-.746.238-1.408.642-1.864.642-.662 1.01-1.739 1.01-2.795 0-1.263-.588-2.401-1.597-2.94-.055-.062-.184-.062-.239-.062C13.835.393 12.936.331 12.11.27 10.752.124 9.34 0 8.037 0c-3.835 0-5.725 1.925-6.68 3.54C.717 4.658 0 6.73 0 8.613c0 1.801.716 4.14 1.248 6.004.11.331.183.662.293.932.11.393.239.786.294 1.118C2.367 18.53 2.715 20 4.312 20c.88 0 1.89-1.077 3.596-3.002 1.138-1.263 2.44-2.65 3.266-3.126.588-.332 1.303-.663 2.074-.994.293-.145.403-.539.293-.87a.556.556 0 00-.77-.331c-.771.393-1.487.725-2.074.994-1.064.538-2.367 2.008-3.596 3.395-.954 1.015-2.367 2.609-2.79 2.609-.586 0-.825-.476-1.302-2.402-.11-.331-.165-.724-.293-1.138-.11-.332-.184-.663-.294-.994-.532-1.802-1.174-3.996-1.174-5.528 0-1.74.715-3.54 1.119-4.265 1.12-2.008 3.064-3.023 5.725-3.023 1.247 0 2.66.124 4.018.27a99.85 99.85 0 012.477.206c.532.332.826.932.826 1.677 0 .746-.239 1.408-.642 1.864-.643.662-.991 1.718-.991 2.795 0 .993.422 2.733 1.596 3.395.184.062.349.062.477 0 5.083-2.526 10.165-5.259 10.165-8.53C26 .6 22.991.476 17.725.476z" fill="#961914"/></svg><svg fill="none" viewBox="0 0 26 20" id="meat" xmlns="http://www.w3.org/2000/svg"><path d="M23.784 3.479c-1.193-.934-2.859-1.687-4.968-2.26C14.75.12 10.165 0 8.376 0 3.76 0 0 3.705 0 8.253v3.494C0 16.295 3.76 20 8.376 20c2.125 0 3.73-.663 5.427-1.355 1.757-.723 3.56-1.461 6.113-1.461 3.363 0 6.084-2.696 6.084-5.994V7.696c0-1.642-.749-3.057-2.216-4.217zm-.428 8.554c.198.196.52.211.718.015a5.92 5.92 0 00.902-1.054v.196c0 2.756-2.278 5-5.075 5-2.751 0-4.662.783-6.496 1.536-1.59.663-3.103 1.28-5.029 1.28-3.897 0-7.107-2.997-7.352-6.792a8.396 8.396 0 007.352 4.292c2.125 0 3.73-.663 5.427-1.355 1.757-.723 3.56-1.461 6.113-1.461.184 0 .383-.015.566-.03.275-.03.49-.271.459-.543a.508.508 0 00-.55-.451c-.153.015-.322.015-.474.015-2.752 0-4.662.783-6.497 1.536-1.605.678-3.118 1.295-5.044 1.295-4.066 0-7.367-3.253-7.367-7.259S4.31.994 8.376.994c1.743 0 6.221.12 10.165 1.19 4.264 1.16 6.435 3.012 6.435 5.512 0 1.37-.58 2.696-1.605 3.63a.509.509 0 00-.015.707z" fill="#961914"/></svg><svg fill="none" viewBox="0 0 32 32" id="modal-close" xmlns="http://www.w3.org/2000/svg"><path d="M25 7L7 25M25 25L7 7" stroke="#000" stroke-width="2" stroke-linecap="round" stroke-linejoin="round"/></svg><svg fill="none" viewBox="0 0 26 27" id="offal" xmlns="http://www.w3.org/2000/svg"><path d="M25.465 8.278c.35-.517.535-1.111.535-1.744 0-1.686-1.31-3.046-2.932-3.046-.608 0-1.18.191-1.678.555a2.81 2.81 0 00-3.356 0 2.899 2.899 0 00-1.678-.555 2.81 2.81 0 00-1.678.555A2.85 2.85 0 0013 3.488c-.627 0-1.199.21-1.678.555a2.81 2.81 0 00-3.356 0V1.495L5.569 0h-.96v4.043a3.107 3.107 0 00-1.253 2.491c0 1.687 1.31 3.047 2.932 3.047a2.81 2.81 0 001.678-.555 2.81 2.81 0 001.678.555 2.77 2.77 0 001.678-.555A2.77 2.77 0 0013 9.58a2.81 2.81 0 001.678-.555 2.77 2.77 0 001.678.555c.608 0 1.18-.191 1.678-.555.48.364 1.051.555 1.66.555.147 0 .313-.019.46-.038-.018.153-.036.307-.036.479s.018.326.037.48a2.87 2.87 0 00-2.14.516 2.677 2.677 0 00-1.659-.555 2.81 2.81 0 00-1.678.556 2.81 2.81 0 00-3.356 0 2.73 2.73 0 00-1.678-.556 2.77 2.77 0 00-1.678.556 2.81 2.81 0 00-3.356 0 2.81 2.81 0 00-1.678-.556C1.309 10.463 0 11.823 0 13.51c0 .651.184 1.245.535 1.743A3.033 3.033 0 000 16.997c0 .633.184 1.227.535 1.744A3.066 3.066 0 000 20.466c0 1.686 1.31 3.046 2.932 3.046a2.9 2.9 0 001.678-.555 2.81 2.81 0 003.356 0 2.81 2.81 0 001.678.555 2.9 2.9 0 001.678-.555 2.81 2.81 0 003.356 0 2.9 2.9 0 001.678.555c.608 0 1.18-.191 1.678-.555v2.548L20.431 27h.96v-4.043a3.107 3.107 0 001.253-2.491c0-1.687-1.31-3.047-2.932-3.047a2.81 2.81 0 00-1.678.555 2.81 2.81 0 00-3.356 0A2.856 2.856 0 0013 17.42a2.81 2.81 0 00-1.678.555 2.81 2.81 0 00-3.356 0 2.81 2.81 0 00-1.678-.555c-.148 0-.314.019-.461.038.018-.153.037-.306.037-.479a4.19 4.19 0 00-.037-.48c.147.02.295.04.46.04.628 0 1.2-.212 1.679-.556.48.383 1.07.574 1.678.574a2.81 2.81 0 001.678-.555 2.9 2.9 0 001.678.555 2.81 2.81 0 001.678-.555 2.81 2.81 0 003.356 0 2.9 2.9 0 001.678.555c.627 0 1.199-.21 1.678-.555.498.364 1.07.555 1.678.555 1.623 0 2.932-1.36 2.932-3.046 0-.633-.184-1.227-.535-1.744.35-.518.535-1.112.535-1.744a3.28 3.28 0 00-.535-1.744zm-.848 3.775c.35.403.535.92.535 1.457 0 1.207-.94 2.184-2.102 2.184-.37 0-.738-.115-1.051-.287a3.132 3.132 0 00.627-1.878h-.83c0 1.207-.94 2.184-2.102 2.184-.886 0-1.678-.575-1.973-1.456l-.793.268c.11.326.258.613.46.862-.755.441-1.77.365-2.433-.268l-.277-.249-.295.25a1.959 1.959 0 01-1.383.555c-.885 0-1.66-.575-1.973-1.437l-.793.306c.11.307.258.594.461.843a2.124 2.124 0 01-2.084 0 3.244 3.244 0 00.609-1.877h-.83c0 1.207-.94 2.184-2.102 2.184-.277 0-.535-.057-.775-.153-.24-.46-.59-.843-1.014-1.13l-.46.727a2.2 2.2 0 01.977 1.84c0 .287-.056.556-.148.805a3.068 3.068 0 00-1.53 2.663h.83c0-1.207.94-2.184 2.101-2.184.517 0 1.015.191 1.402.556l.277.268.276-.268a2.204 2.204 0 012.471-.23 3.096 3.096 0 00-.627 1.878h.83c0-.614.258-1.208.7-1.63A2.107 2.107 0 0113 18.3c1.162 0 2.102.977 2.102 2.185h.83c0-.71-.24-1.36-.627-1.878a2.116 2.116 0 012.452.249l.277.268.277-.268a2.035 2.035 0 011.401-.556c1.162 0 2.102.977 2.102 2.185 0 .766-.405 1.494-1.05 1.878l-.204.134v3.583l-1.678-1.054v-2.53l-.203-.133a2.468 2.468 0 01-.35-.269l-.277-.268-.276.268a2.035 2.035 0 01-1.401.556c-.867 0-1.66-.556-1.955-1.399l-.793.307c.11.287.258.556.442.805a2.124 2.124 0 01-2.083 0c.203-.269.35-.556.46-.882l-.829-.287c-.295.881-1.088 1.456-1.973 1.456a2.035 2.035 0 01-1.401-.556l-.277-.268-.277.268a2.055 2.055 0 01-2.434.25c.203-.269.35-.556.461-.882l-.793-.287c-.295.881-1.088 1.456-1.973 1.456-1.161 0-2.102-.977-2.102-2.185 0-1.207.94-2.184 2.102-2.184v-.843c-.682 0-1.309.249-1.807.651a2.23 2.23 0 01-.276-1.092c0-.383.092-.767.276-1.092.387.306.83.517 1.346.613l.13-.862c-1.033-.154-1.79-1.054-1.79-2.127 0-1.208.941-2.185 2.103-2.185.516 0 1.014.192 1.401.556l.277.268.277-.268a2.055 2.055 0 012.434-.25c-.185.25-.332.537-.443.863l.793.287c.295-.862 1.088-1.456 1.973-1.456 1.162 0 2.102.977 2.102 2.185h.83c0-.71-.24-1.361-.627-1.878.756-.441 1.77-.364 2.434.249l.277.268.295-.268a2.035 2.035 0 011.401-.556c1.143 0 2.084.977 2.084 2.185h.83c0-.71-.24-1.361-.627-1.878a2.081 2.081 0 011.843-.134c.111.191.24.383.388.555l.627-.575a2.21 2.21 0 01-.535-1.456c0-.287.055-.556.147-.824.185-.115.37-.25.535-.402l-.553-.652a2.035 2.035 0 01-1.401.556c-.886 0-1.678-.575-1.973-1.457l-.793.307c.11.326.258.613.46.862-.755.441-1.77.364-2.433-.249l-.277-.268-.295.268c-.664.613-1.678.69-2.434.25.184-.25.35-.537.46-.863l-.792-.287c-.295.862-1.088 1.456-1.973 1.456a2.035 2.035 0 01-1.401-.556l-.277-.268-.277.268a2.126 2.126 0 01-1.401.556c-1.162 0-2.102-.977-2.102-2.185 0-.766.405-1.494 1.05-1.878l.204-.134V.94l1.678 1.054v2.53l.203.133c.129.077.24.173.35.269l.295.249.277-.268c.663-.614 1.678-.69 2.452-.25a3.016 3.016 0 00-.627 1.878h.83c0-1.207.94-2.184 2.102-2.184.516 0 1.014.192 1.401.556l.277.268.277-.268a2.035 2.035 0 011.401-.556c1.143 0 2.084.977 2.084 2.184h.83c0-.709-.24-1.36-.627-1.878a2.116 2.116 0 012.452.25l.277.268.276-.268a2.035 2.035 0 011.402-.556c1.161 0 2.102.977 2.102 2.184 0 .384-.11.767-.277 1.093a2.87 2.87 0 00-1.807-.652v.862c1.162 0 2.102.978 2.102 2.185a2.21 2.21 0 01-.535 1.456l-.258.288.24.287z" fill="#961914"/></svg><svg fill="none" viewBox="0 0 31 36" id="package" xmlns="http://www.w3.org/2000/svg"><path d="M15.54 18l-.165 16.064M29.75 25.396V10.604a1.25 1.25 0 00-.635-1.088L15.99 2.098a1.25 1.25 0 00-1.23 0L1.635 9.516A1.25 1.25 0 001 10.604v14.792a1.25 1.25 0 00.635 1.088l13.125 7.418a1.25 1.25 0 001.23 0l13.125-7.418a1.25 1.25 0 00.635-1.088v0z" stroke="#961914" stroke-width="2" stroke-linecap="round" stroke-linejoin="round"/><path d="M29.579 9.973L15.54 18 1.172 9.97" stroke="#961914" stroke-width="2" stroke-linecap="round" stroke-linejoin="round"/><path d="M23.052 21.205v-7.5l-14.496-8.1" stroke="#961914" stroke-width="2" stroke-linecap="round" stroke-linejoin="round"/></svg><svg fill="none" viewBox="0 0 40 40" id="paw" xmlns="http://www.w3.org/2000/svg"><path d="M33.125 20a3.125 3.125 0 100-6.25 3.125 3.125 0 000 6.25zM6.875 20a3.125 3.125 0 100-6.25 3.125 3.125 0 000 6.25zM14.375 12.5a3.125 3.125 0 100-6.25 3.125 3.125 0 000 6.25zM25.625 12.5a3.125 3.125 0 100-6.25 3.125 3.125 0 000 6.25zM28.63 24.352a6.803 6.803 0 01-3.229-4.047h0a5.625 5.625 0 00-10.802 0h0a6.803 6.803 0 01-3.23 4.047 5.002 5.002 0 004.332 9.003 11.33 11.33 0 018.598 0 5 5 0 004.332-9.003h0z" stroke="#961914" stroke-width="2" stroke-linecap="round" stroke-linejoin="round"/></svg><svg fill="none" viewBox="0 0 40 40" id="phone-call" xmlns="http://www.w3.org/2000/svg"><path d="M24.909 6.25a12.524 12.524 0 018.841 8.841M23.615 11.08a7.514 7.514 0 015.304 5.305M14.45 19.502a13.18 13.18 0 006.102 6.075 1.24 1.24 0 001.223-.093l3.912-2.608a1.25 1.25 0 011.185-.11l7.319 3.137a1.245 1.245 0 01.75 1.297 7.501 7.501 0 01-7.441 6.55A21.25 21.25 0 016.25 12.5a7.501 7.501 0 016.55-7.44 1.246 1.246 0 011.297.75l3.139 7.324a1.25 1.25 0 01-.103 1.177l-2.6 3.972a1.24 1.24 0 00-.084 1.22v0z" stroke="#961914" stroke-width="2" stroke-linecap="round" stroke-linejoin="round"/></svg><svg fill="none" viewBox="0 0 40 40" id="smiley" xmlns="http://www.w3.org/2000/svg"><path d="M20 35c8.284 0 15-6.716 15-15 0-8.284-6.716-15-15-15-8.284 0-15 6.716-15 15 0 8.284 6.716 15 15 15zM26.497 23.75a7.505 7.505 0 01-12.994 0" stroke="#961914" stroke-width="2" stroke-linecap="round" stroke-linejoin="round"/><path d="M14.375 18.75a1.875 1.875 0 100-3.75 1.875 1.875 0 000 3.75zM25.625 18.75a1.875 1.875 0 100-3.75 1.875 1.875 0 000 3.75z" fill="#961914"/></svg><svg fill="none" viewBox="0 0 24 24" id="telegram" xmlns="http://www.w3.org/2000/svg"><path d="M8.25 12.644l8.43 7.418a.749.749 0 001.226-.395L21.433 4.28a.75.75 0 00-1.006-.866L3.125 10.211a.75.75 0 00.127 1.434l4.998 1zM8.25 12.644l12.76-9.216" stroke="#fff" stroke-linecap="round" stroke-linejoin="round"/><path d="M12.46 16.35l-2.93 2.929a.75.75 0 01-1.28-.53v-6.105" stroke="#fff" stroke-linecap="round" stroke-linejoin="round"/></svg><svg fill="none" viewBox="0 0 264 99" id="title-line" xmlns="http://www.w3.org/2000/svg"><path d="M162.66 7.367C88.86-7.738 4.94 17.622 2.951 40.38.845 64.465 57.12 89.063 128.644 95.32c71.523 6.257 131.212-8.196 133.318-32.282 2.001-22.886-76.266-51.786-146.857-49.08" stroke="#EC7973" stroke-width="4" stroke-linecap="round"/></svg><svg fill="none" viewBox="0 0 30 30" id="vegetables" xmlns="http://www.w3.org/2000/svg"><path d="M30 16.914a6.716 6.716 0 00-2.734-5.38 2.019 2.019 0 00-1.217-.405c-.546 0-1.058.211-1.428.582-.07-.053-.141-.124-.212-.177a1.753 1.753 0 00-.917-.37l.212-2.346v-.176a1.87 1.87 0 00-1.87-1.87h-.123a1.87 1.87 0 00-1.87 1.87v.176l.212 2.364c-.3.053-.6.176-.847.37-.088.07-.158.141-.247.212a.474.474 0 00-.14-.124c.035-.176.052-.353.052-.511 0-.617-.194-1.2-.546-1.693a2.895 2.895 0 00.546-1.694c0-1.657-1.393-2.998-3.068-2.892-.318-.882-1.041-1.57-1.923-1.816a2.895 2.895 0 00-2.434-1.094A2.896 2.896 0 008.713 0C7.654 0 6.702.564 6.19 1.446a2.934 2.934 0 00-2.698 2.187C1.993 4.198.97 5.643.97 7.25a3.83 3.83 0 001.693 3.192 3 3 0 00-.247 1.164c0 .864.388 1.675 1.058 2.222-.052.23-.088.459-.088.688a2.886 2.886 0 002.558 2.875l1.075 2.998a5.493 5.493 0 00-1.375 1.481l-2.54-.564a1.556 1.556 0 00-.3-.035c-.74 0-1.358.6-1.358 1.358v.194a.95.95 0 00.07.388h-.07A1.48 1.48 0 000 24.674c0 .793.653 1.446 1.446 1.446h.07c-.035.123-.07.247-.07.388v.194c0 .74.6 1.358 1.358 1.358.106 0 .194-.018.3-.035l2.54-.565c.934 1.517 2.61 2.54 4.515 2.54h.106c.264 0 .546-.018.81-.07l16.597-2.558A2.736 2.736 0 0030 24.656a2.719 2.719 0 00-1.57-2.47A6.682 6.682 0 0030 17.902v-.987zm-6.173-4.604a5.95 5.95 0 012.31 4.71v1.78c0 .988-.246 1.958-.705 2.823l-3.88-.6a9.663 9.663 0 01-.247-2.134v-1.975c0-.494.053-.97.124-1.464.123.017.229.017.352.017 1.376 0 2.417-.617 2.417-1.446 0-.458-.318-.864-.865-1.129l.07-.776c.142.036.283.089.424.194zm-2.116-4.568h.123c.494 0 .9.406.9.9v.088l-.441 4.833.37.123c.423.141.564.318.564.353 0 .123-.511.476-1.446.476-.934 0-1.446-.37-1.446-.476 0-.035.141-.212.564-.353l.37-.123-.458-4.833v-.088c0-.494.406-.9.9-.9zm-1.57 4.392l.07.758c-.546.265-.864.67-.864 1.13 0 .528.441.97 1.112 1.234a10.517 10.517 0 00-.142 1.658v1.957c0 .67.071 1.323.195 1.976l-2.858-.441a5.685 5.685 0 01-.247-1.64v-1.747c0-1.834.882-3.597 2.364-4.709.123-.088.247-.14.37-.176zM14.921 20a5.606 5.606 0 01-.406-2.081v-1.005c0-1.8.882-3.528 2.346-4.604a1.066 1.066 0 011.393.106 6.826 6.826 0 00-1.799 4.603v1.782c0 .494.053.987.159 1.481L14.92 20zm.035-14.533l.088.494.494-.106c.159-.035.3-.053.423-.053 1.076 0 1.94.865 1.94 1.94 0 .512-.194.988-.546 1.359l-.336.335.336.335c.352.37.546.846.546 1.358v.035c-.14-.018-.264-.035-.405-.035-.441 0-.865.14-1.217.405-.882.635-1.57 1.5-2.046 2.452a35.656 35.656 0 00-.565-1.64c.441-2.364 2.1-3.722 2.117-3.74l-.3-.387-.3-.37c-.07.052-1.376 1.128-2.116 3.05-1.006-2.31-1.958-3.809-2.01-3.897l-.83.511c.018.018.759 1.182 1.605 3.034-1.428-.547-3.086-.388-3.174-.388l.088.97c.723-.07 2.786-.035 3.756.952.335.83.67 1.746.97 2.734-1.463-.776-3.227-.776-3.315-.776v.952c.017 0 2.169.018 3.457 1.023-.036.3-.071.6-.071.9v1.022c0 .653.106 1.288.282 1.905l-2.751-.423-.423-.053a1.95 1.95 0 01-1.94-1.958c0-.229.052-.458.14-.687l.142-.37-.353-.195c-.564-.353-.9-.97-.9-1.64 0-.388.106-.758.318-1.076l.3-.458-.476-.23a2.863 2.863 0 01-1.588-2.592 2.91 2.91 0 012.1-2.787l.299-.088.053-.318c.123-.934.952-1.64 1.905-1.64h.053c.035 0 .07.018.105.018l.353.035.123-.335a1.922 1.922 0 011.782-1.182c.934 0 1.728.688 1.887 1.605zM6.63 16.455h-.335a1.934 1.934 0 01-1.94-1.94c0-.23.053-.459.141-.688l.141-.37-.352-.212c-.565-.353-.9-.97-.9-1.64 0-.388.106-.758.318-1.076l.3-.459-.477-.229A2.863 2.863 0 011.94 7.25a2.91 2.91 0 012.099-2.787l.3-.088.053-.318c.14-.934.952-1.657 1.904-1.657h.053c.035 0 .07 0 .106.017l.353.035.14-.317C7.232 1.429 7.938.97 8.714.97c.934 0 1.728.67 1.904 1.605l.088.494.494-.106c.159-.035.283-.053.424-.053.229 0 .44.053.635.124-.724.194-1.34.67-1.711 1.322-1.288.036-2.381.953-2.699 2.187a3.857 3.857 0 00-2.522 3.616A3.83 3.83 0 007.02 13.35a2.862 2.862 0 00.811 3.386c-.052.23-.088.459-.088.688 0 .847.37 1.623.953 2.152a6.695 6.695 0 00-.829.317l-1.235-3.439zM2.416 22.84v-.195c0-.246.23-.423.476-.37l2.31.512c-.07.14-.123.282-.158.44h-2.24a.391.391 0 01-.388-.387zM.97 24.674c0-.265.212-.476.476-.476h3.422c-.018.158-.018.317-.018.476 0 .159.018.317.018.476H1.446a.474.474 0 01-.476-.476zm1.922 2.416c-.229.053-.476-.141-.476-.37v-.194c0-.212.177-.388.388-.388h2.24c.035.158.088.3.141.44l-2.293.512zm26.138-2.416c0 .882-.635 1.622-1.5 1.746l-16.595 2.557c-.212.035-.441.053-.67.053h-.106a4.366 4.366 0 01-4.357-4.356 4.366 4.366 0 014.357-4.357h.106c.211 0 .44.018.67.053l16.596 2.558a1.75 1.75 0 011.499 1.746zm0-6.755c0 1.481-.6 2.928-1.658 4.003l-.97-.14c.441-.935.67-1.94.67-2.981v-1.782c0-1.71-.652-3.368-1.781-4.62.194-.177.459-.3.74-.3.23 0 .46.07.636.211a5.756 5.756 0 012.345 4.604l.018 1.005z" fill="#961914"/><path d="M9.683 22.257h.97v4.833h-.97v-4.833zM13.545 22.257h.97v4.833h-.97v-4.833zM17.425 22.257h.97v4.833h-.97v-4.833zM21.288 23.227h.97v2.91h-.97v-2.91zM25.15 23.704h.97v1.94h-.97v-1.94z" fill="#961914"/></svg><svg fill="none" viewBox="0 0 30 31" id="walnut" xmlns="http://www.w3.org/2000/svg"><path d="M10.863 13.13c-.46-1.587-1.865-2.676-3.49-2.676-1.623 0-3.028 1.089-3.489 2.676-1.163.749-2.128 1.905-2.809 3.334C.373 17.96 0 19.707 0 21.544c0 2.494.68 4.83 1.931 6.53 1.36 1.883 3.292 2.903 5.443 2.903 2.15 0 4.082-1.02 5.442-2.902a.453.453 0 00-.087-.635c-.198-.159-.461-.114-.615.09-1.185 1.633-2.875 2.54-4.74 2.54-1.866 0-3.555-.907-4.74-2.54C1.492 25.966.878 23.834.878 21.544c0-1.701.329-3.334.987-4.672.637-1.338 1.537-2.381 2.634-3.039a.4.4 0 00.197-.294c.308-1.27 1.405-2.178 2.678-2.178s2.392.885 2.677 2.178a.54.54 0 00.198.294c1.097.658 1.997 1.724 2.633 3.039.637 1.36.988 2.97.988 4.672 0 1.519-.264 2.97-.79 4.24-.088.227 0 .5.241.59.22.09.483 0 .57-.25.571-1.383.857-2.948.857-4.58 0-1.837-.373-3.606-1.076-5.08-.658-1.429-1.646-2.585-2.809-3.334z" fill="#961914"/><path d="M4.082 18.709a.437.437 0 00-.549.317 9.286 9.286 0 00-.329 2.518c0 3.56 1.756 6.122 4.17 6.122 2.414 0 4.17-2.585 4.17-6.122 0-3.538-1.756-6.123-4.17-6.123-1.097 0-2.107.544-2.853 1.542a.471.471 0 00.066.635c.197.158.46.113.614-.091.593-.771 1.339-1.18 2.173-1.18 1.91 0 3.292 2.2 3.292 5.216 0 3.017-1.383 5.216-3.292 5.216-1.91 0-3.292-2.2-3.292-5.215 0-.817.11-1.588.307-2.268a.474.474 0 00-.307-.567zM28.069 2.903C26.709 1.02 24.777 0 22.626 0c-2.15 0-4.104 1.02-5.442 2.903-.878 1.202-1.493 2.744-1.756 4.444-.066.227.11.477.351.522a.463.463 0 00.505-.385c.241-1.543.79-2.949 1.602-4.037 1.185-1.633 2.853-2.54 4.74-2.54 1.866 0 3.555.907 4.74 2.54 1.142 1.565 1.756 3.696 1.756 5.987 0 1.7-.329 3.333-.987 4.671-.637 1.338-1.537 2.381-2.634 3.04a.4.4 0 00-.197.294c-.308 1.27-1.405 2.177-2.678 2.177a2.746 2.746 0 01-2.677-2.177.525.525 0 00-.22-.272c-1.097-.658-1.997-1.724-2.633-3.039-.637-1.36-.966-2.993-.966-4.694a.448.448 0 00-.439-.454.448.448 0 00-.439.454c0 1.837.373 3.606 1.076 5.08.68 1.428 1.646 2.585 2.809 3.333.46 1.587 1.865 2.676 3.49 2.676 1.623 0 3.028-1.088 3.489-2.676 1.163-.748 2.15-1.905 2.809-3.334C29.627 13.04 30 11.271 30 9.434c0-2.494-.702-4.807-1.931-6.53z" fill="#961914"/><path d="M26.05 11.86c.241.046.483-.09.526-.34.154-.658.22-1.36.22-2.086 0-3.56-1.756-6.123-4.17-6.123-2.414 0-4.191 2.585-4.191 6.123 0 3.537 1.755 6.123 4.17 6.123 1.294 0 2.435-.749 3.225-2.087a.448.448 0 00-.153-.612.418.418 0 00-.593.159c-.614 1.066-1.492 1.655-2.458 1.655-1.91 0-3.292-2.2-3.292-5.216s1.383-5.215 3.292-5.215c1.91 0 3.292 2.2 3.292 5.215 0 .658-.066 1.293-.197 1.883a.422.422 0 00.329.521zM6.43 23.584a.448.448 0 00-.439-.453.448.448 0 00-.439.453c0 .25.198.454.44.454a.448.448 0 00.438-.454zM7.747 25.308a.446.446 0 00.439-.454.446.446 0 00-.44-.453.446.446 0 00-.438.453c0 .25.196.454.439.454zM8.515 19.208a.446.446 0 00.439-.454.446.446 0 00-.439-.453.446.446 0 00-.439.453c0 .25.197.454.439.454z" fill="#961914"/><path d="M20.783 7.415c0 .25.197.454.439.454a.448.448 0 00.438-.454.448.448 0 00-.438-.453.448.448 0 00-.44.453zM22.977 6.6a.446.446 0 00.44-.454.446.446 0 00-.44-.454.446.446 0 00-.439.454c0 .25.197.453.44.453zM23.767 12.7a.446.446 0 00.44-.454.446.446 0 00-.44-.454.446.446 0 00-.439.454c0 .25.197.453.44.453z" fill="#961914"/></svg><svg fill="none" viewBox="0 0 24 24" id="whatsapp" xmlns="http://www.w3.org/2000/svg"><path d="M4.259 16.594a8.996 8.996 0 113.147 3.147h0l-3.108.888a.75.75 0 01-.927-.927l.888-3.109h0z" stroke="#fff" stroke-linecap="round" stroke-linejoin="round"/><path d="M13.938 16.5h-.003A6.426 6.426 0 017.5 10.065v-.001A2.572 2.572 0 0110.074 7.5m3.864 9L10.95 8.01a1.01 1.01 0 00-.877-.51s0 0 0 0m3.864 9a2.58 2.58 0 002.562-2.573v-.001M13.938 16.5l2.562-2.574M10.074 7.5s0 0 0 0V8v-.5zm6.426 6.426a1.01 1.01 0 00-.51-.877l-1.515-.867a1.093 1.093 0 00-1.104.012l-.924.555a3.069 3.069 0 01-1.196-1.196l.555-.924a1.093 1.093 0 00.012-1.104l-.867-1.516 5.549 5.917zm-.569-.256a.51.51 0 01.069.256l-.257-.443a.51.51 0 01.188.187z" stroke="#fff" stroke-linecap="round" stroke-linejoin="round"/></svg><svg fill="none" viewBox="0 0 147 548" id="zooov" xmlns="http://www.w3.org/2000/svg"><path opacity=".6" fill-rule="evenodd" clip-rule="evenodd" d="M165.609 548h-22.685L28.299 508.823v37.378H2.192V471.25h21.29l116.02 39.776v-40.175h26.107V548zm-25.111-35.577L23.317 472.25H3.189v72.952h24.113v-37.775l115.787 39.574h21.523V471.85h-24.114v40.573zM36.258 394.922l-.009.002c-2.768.504-4.976 1.565-6.674 3.146-1.578 1.47-2.472 3.879-2.472 7.463 0 3.29.88 5.58 2.472 7.062 1.698 1.582 3.906 2.642 6.674 3.147l.009.002c2.721.52 5.648.781 8.781.781h77.723c3.004 0 5.941-.196 8.811-.587 2.767-.508 4.973-1.506 6.667-2.956 1.569-1.471 2.458-3.877 2.458-7.449 0-3.584-.894-5.993-2.472-7.463-1.698-1.581-3.906-2.642-6.675-3.146a48.889 48.889 0 00-8.789-.784H45.039c-3.133 0-6.06.262-8.781.782zm102.646 18.805c-1.86 1.599-4.252 2.665-7.174 3.198-2.923.4-5.913.6-8.968.6H45.039c-3.189 0-6.178-.267-8.968-.8-2.923-.533-5.314-1.665-7.174-3.397-1.86-1.733-2.79-4.331-2.79-7.795 0-3.731.93-6.463 2.79-8.195 1.86-1.732 4.251-2.865 7.174-3.398 2.79-.533 5.78-.799 8.968-.799h77.723c3.055 0 6.045.266 8.968.799 2.922.533 5.314 1.666 7.174 3.398 1.86 1.732 2.79 4.464 2.79 8.195s-.93 6.462-2.79 8.194zM168 405.533c0 12.227-2.141 22.023-6.521 29.297-4.37 7.26-10.66 12.466-18.831 15.607-8.113 3.119-17.739 4.663-28.854 4.663H53.808c-11.246 0-20.875-1.543-28.86-4.665-8.039-3.143-14.195-8.351-18.43-15.611C2.14 427.55 0 417.757 0 405.533c0-12.353 2.139-22.213 6.515-29.488 4.234-7.392 10.39-12.67 18.433-15.814 7.985-3.122 17.614-4.665 28.86-4.665h59.986c11.115 0 20.741 1.544 28.854 4.663 8.175 3.142 14.465 8.418 18.834 15.81 4.378 7.275 6.518 17.138 6.518 29.494zm-7.374-28.981c-4.251-7.196-10.363-12.325-18.334-15.39-7.972-3.065-17.471-4.597-28.498-4.597H53.808c-11.16 0-20.66 1.532-28.498 4.597-7.84 3.065-13.818 8.194-17.936 15.39-4.252 7.062-6.378 16.722-6.378 28.981 0 12.125 2.126 21.719 6.378 28.781 4.118 7.062 10.097 12.125 17.936 15.19 7.838 3.064 17.338 4.597 28.498 4.597h59.986c11.027 0 20.526-1.533 28.498-4.597 7.971-3.065 14.083-8.128 18.334-15.19 4.252-7.062 6.378-16.656 6.378-28.781 0-12.259-2.126-21.919-6.378-28.981zM36.258 273.814l-.009.002c-2.768.504-4.976 1.565-6.674 3.146-1.578 1.47-2.472 3.879-2.472 7.463 0 3.29.88 5.58 2.472 7.062 1.698 1.582 3.906 2.642 6.674 3.147l.009.002c2.721.52 5.648.782 8.781.782h77.723c3.004 0 5.941-.196 8.811-.588 2.767-.508 4.973-1.506 6.667-2.956 1.569-1.471 2.457-3.876 2.457-7.449 0-3.584-.893-5.993-2.471-7.463-1.698-1.581-3.906-2.642-6.675-3.146a48.889 48.889 0 00-8.789-.784H45.039c-3.133 0-6.06.262-8.781.782zm95.472 22.003c-2.923.4-5.913.6-8.968.6H45.039c-3.189 0-6.178-.267-8.968-.8-2.923-.533-5.314-1.665-7.174-3.397-1.86-1.733-2.79-4.331-2.79-7.795 0-3.731.93-6.463 2.79-8.195 1.86-1.732 4.251-2.865 7.174-3.398 2.79-.533 5.78-.799 8.968-.799h77.723c3.055 0 6.045.266 8.968.799 2.922.533 5.314 1.666 7.174 3.398 1.86 1.732 2.79 4.464 2.79 8.195s-.93 6.462-2.79 8.194c-1.86 1.599-4.252 2.665-7.174 3.198zM168 284.425c0 12.227-2.141 22.023-6.521 29.297-4.37 7.26-10.66 12.466-18.831 15.607-8.113 3.119-17.739 4.663-28.854 4.663H53.808c-11.246 0-20.875-1.543-28.86-4.665-8.039-3.143-14.195-8.351-18.43-15.61C2.14 306.443 0 296.649 0 284.425c0-12.353 2.139-22.213 6.515-29.489 4.234-7.391 10.39-12.669 18.433-15.813 7.985-3.122 17.614-4.665 28.86-4.665h59.986c11.115 0 20.741 1.544 28.854 4.663 8.175 3.142 14.464 8.417 18.833 15.809 4.379 7.276 6.519 17.138 6.519 29.495zm-7.374-28.981c-4.251-7.195-10.363-12.325-18.334-15.39-7.972-3.065-17.471-4.597-28.498-4.597H53.808c-11.16 0-20.66 1.532-28.498 4.597-7.84 3.065-13.818 8.195-17.936 15.39-4.252 7.062-6.378 16.722-6.378 28.981 0 12.125 2.126 21.719 6.378 28.781 4.118 7.062 10.097 12.125 17.936 15.19 7.838 3.065 17.338 4.597 28.498 4.597h59.986c11.027 0 20.526-1.532 28.498-4.597 7.971-3.065 14.083-8.128 18.334-15.19 4.252-7.062 6.378-16.656 6.378-28.781 0-12.259-2.126-21.919-6.378-28.981zM36.258 152.706l-.009.002c-2.768.505-4.976 1.565-6.674 3.147-1.578 1.469-2.472 3.878-2.472 7.462 0 3.29.88 5.58 2.472 7.062 1.698 1.582 3.906 2.643 6.674 3.147l.009.002c2.721.52 5.648.782 8.781.782h77.723c3.004 0 5.941-.196 8.811-.588 2.767-.507 4.973-1.506 6.667-2.956 1.569-1.471 2.457-3.876 2.457-7.449 0-3.584-.893-5.993-2.471-7.462-1.698-1.582-3.906-2.642-6.675-3.147a48.889 48.889 0 00-8.789-.784H45.039c-3.133 0-6.06.262-8.781.782zm95.472 22.003c-2.923.4-5.913.6-8.968.6H45.039c-3.189 0-6.178-.266-8.968-.799-2.923-.533-5.314-1.666-7.174-3.398-1.86-1.732-2.79-4.331-2.79-7.795 0-3.731.93-6.463 2.79-8.195 1.86-1.732 4.251-2.864 7.174-3.397 2.79-.533 5.78-.8 8.968-.8h77.723c3.055 0 6.045.267 8.968.8 2.922.533 5.314 1.665 7.174 3.397 1.86 1.732 2.79 4.464 2.79 8.195s-.93 6.462-2.79 8.194c-1.86 1.599-4.252 2.665-7.174 3.198zM168 163.317c0 12.227-2.141 22.023-6.521 29.298-4.37 7.26-10.66 12.465-18.831 15.606-8.113 3.119-17.739 4.663-28.854 4.663H53.808c-11.246 0-20.875-1.543-28.86-4.665-8.039-3.143-14.195-8.35-18.43-15.61C2.14 185.335 0 175.541 0 163.317c0-12.353 2.139-22.213 6.515-29.488 4.234-7.392 10.39-12.669 18.433-15.814 7.985-3.122 17.614-4.665 28.86-4.665h59.986c11.115 0 20.741 1.544 28.854 4.663 8.175 3.143 14.464 8.417 18.833 15.809 4.379 7.276 6.519 17.138 6.519 29.495zm-7.374-28.981c-4.251-7.195-10.363-12.325-18.334-15.39-7.972-3.065-17.471-4.597-28.498-4.597H53.808c-11.16 0-20.66 1.532-28.498 4.597-7.84 3.065-13.818 8.195-17.936 15.39-4.252 7.062-6.378 16.722-6.378 28.981 0 12.125 2.126 21.719 6.378 28.781 4.118 7.062 10.097 12.125 17.936 15.19 7.838 3.065 17.338 4.597 28.498 4.597h59.986c11.027 0 20.526-1.532 28.498-4.597 7.971-3.065 14.083-8.128 18.334-15.19 4.252-7.062 6.378-16.656 6.378-28.781 0-12.259-2.126-21.919-6.378-28.981zm4.983-64.947L2.192 98.931V66.3l104.005-16.5L2.192 34.442V0L165.61 29.946v39.443zm-52.812-19.622L3.189 67.155v30.58l161.423-29.18V30.778L3.189 1.199v32.378l109.608 16.19z" fill="#fff"/></svg></svg>